<?xml version="1.0" standalone="no"?>
<!DOCTYPE svg PUBLIC "-//W3C//DTD SVG 20010904//EN"
 "http://www.w3.org/TR/2001/REC-SVG-20010904/DTD/svg10.dtd">
<svg version="1.0" xmlns="http://www.w3.org/2000/svg"
 width="260.000000pt" height="260.000000pt" viewBox="0 0 260.000000 260.000000"
 preserveAspectRatio="xMidYMid meet">
<metadata>
Created by potrace 1.14, written by Peter Selinger 2001-2017
</metadata>
<g transform="translate(0.000000,260.000000) scale(0.100000,-0.100000)"
fill="#000000" stroke="none">
<path d="M1478 2514 c-51 -27 -73 -101 -45 -151 14 -26 354 -370 371 -376 6
-2 -76 -91 -182 -197 -106 -106 -195 -203 -198 -217 -10 -37 4 -85 33 -115 22
-23 35 -28 77 -28 l50 0 186 185 c102 101 188 188 193 192 4 4 94 -80 200
-185 l193 -192 50 0 c73 1 114 43 114 119 0 44 -1 45 -192 237 -105 107 -190
196 -187 198 2 3 88 90 192 194 l187 188 0 46 c0 81 -72 136 -144 112 -14 -5
-110 -93 -214 -197 l-188 -187 -165 166 c-90 92 -182 179 -203 195 -44 32 -85
37 -128 13z"/>
<path d="M118 1164 c-52 -28 -72 -98 -44 -152 8 -15 96 -108 195 -206 l181
-180 -190 -189 c-105 -104 -193 -200 -196 -213 -19 -76 35 -144 114 -144 l46
0 191 190 c105 105 193 190 196 190 3 0 91 -85 196 -190 l189 -190 50 0 c73 1
114 43 114 119 0 43 -2 46 -152 198 -190 192 -211 213 -220 213 -26 0 12 45
182 215 l190 191 0 47 c0 37 -6 53 -29 79 -26 29 -35 33 -80 33 l-51 0 -193
-193 -194 -194 -26 32 c-15 17 -27 30 -27 28 0 -3 -69 65 -152 150 -84 84
-165 160 -180 168 -34 18 -75 17 -110 -2z"/>
<path d="M1857 1169 c-89 -17 -198 -76 -272 -146 -181 -172 -218 -484 -81
-686 14 -21 26 -40 26 -43 0 -3 18 -23 40 -44 123 -120 239 -170 397 -170 143
0 226 26 329 103 53 40 124 111 124 124 0 2 11 19 24 36 14 18 37 68 51 112
25 73 27 90 22 195 -3 78 -10 128 -22 155 -42 98 -55 123 -70 135 -8 7 -15 16
-15 21 0 11 -66 76 -113 112 -52 40 -153 85 -216 97 -64 12 -157 11 -224 -1z
m203 -230 c19 -6 45 -18 58 -25 12 -8 22 -12 22 -9 0 3 14 -8 31 -25 18 -16
37 -30 42 -30 6 0 8 -3 5 -6 -3 -3 5 -17 18 -31 44 -48 64 -147 50 -258 -5
-43 -47 -117 -91 -159 -106 -103 -286 -117 -411 -32 -49 33 -101 109 -121 175
-70 243 159 473 397 400z"/>
</g>
</svg>
